<mxfile host="Electron" agent="Mozilla/5.0 (Windows NT 10.0; Win64; x64) AppleWebKit/537.36 (KHTML, like Gecko) draw.io/28.0.6 Chrome/138.0.7204.100 Electron/37.2.3 Safari/537.36" version="28.0.6">
  <diagram name="第 1 页" id="lo2aSuhOz6fTBiF25naZ">
    <mxGraphModel dx="1213" dy="828" grid="1" gridSize="10" guides="1" tooltips="1" connect="1" arrows="1" fold="1" page="1" pageScale="1" pageWidth="827" pageHeight="1169" math="0" shadow="0">
      <root>
        <mxCell id="0" />
        <mxCell id="1" parent="0" />
        <mxCell id="vK1v-gUqV4TVuX3k9fDQ-4" value="" style="edgeStyle=orthogonalEdgeStyle;rounded=0;orthogonalLoop=1;jettySize=auto;html=1;" edge="1" parent="1" source="vK1v-gUqV4TVuX3k9fDQ-1" target="vK1v-gUqV4TVuX3k9fDQ-3">
          <mxGeometry relative="1" as="geometry" />
        </mxCell>
        <mxCell id="vK1v-gUqV4TVuX3k9fDQ-1" value="" style="rounded=0;whiteSpace=wrap;html=1;" vertex="1" parent="1">
          <mxGeometry x="50" y="280" width="120" height="270" as="geometry" />
        </mxCell>
        <mxCell id="vK1v-gUqV4TVuX3k9fDQ-2" value="Actor" style="shape=umlActor;verticalLabelPosition=bottom;verticalAlign=top;html=1;outlineConnect=0;" vertex="1" parent="1">
          <mxGeometry x="65" y="330" width="90" height="180" as="geometry" />
        </mxCell>
        <mxCell id="vK1v-gUqV4TVuX3k9fDQ-6" value="" style="edgeStyle=orthogonalEdgeStyle;rounded=0;orthogonalLoop=1;jettySize=auto;html=1;" edge="1" parent="1" source="vK1v-gUqV4TVuX3k9fDQ-3" target="vK1v-gUqV4TVuX3k9fDQ-5">
          <mxGeometry relative="1" as="geometry" />
        </mxCell>
        <mxCell id="vK1v-gUqV4TVuX3k9fDQ-3" value="&lt;span style=&quot;font-size: 20px;&quot;&gt;科目名称&lt;/span&gt;" style="whiteSpace=wrap;html=1;rounded=0;" vertex="1" parent="1">
          <mxGeometry x="210" y="372.5" width="110" height="85" as="geometry" />
        </mxCell>
        <mxCell id="vK1v-gUqV4TVuX3k9fDQ-8" value="" style="edgeStyle=orthogonalEdgeStyle;rounded=0;orthogonalLoop=1;jettySize=auto;html=1;" edge="1" parent="1" source="vK1v-gUqV4TVuX3k9fDQ-5" target="vK1v-gUqV4TVuX3k9fDQ-7">
          <mxGeometry relative="1" as="geometry" />
        </mxCell>
        <mxCell id="vK1v-gUqV4TVuX3k9fDQ-5" value="&lt;span style=&quot;font-size: 20px;&quot;&gt;获取所有学生某一科分数并求和&lt;/span&gt;" style="whiteSpace=wrap;html=1;rounded=0;" vertex="1" parent="1">
          <mxGeometry x="360" y="372.5" width="170" height="85" as="geometry" />
        </mxCell>
        <mxCell id="vK1v-gUqV4TVuX3k9fDQ-10" value="" style="edgeStyle=orthogonalEdgeStyle;rounded=0;orthogonalLoop=1;jettySize=auto;html=1;" edge="1" parent="1" source="vK1v-gUqV4TVuX3k9fDQ-7" target="vK1v-gUqV4TVuX3k9fDQ-9">
          <mxGeometry relative="1" as="geometry" />
        </mxCell>
        <mxCell id="vK1v-gUqV4TVuX3k9fDQ-13" value="" style="edgeStyle=orthogonalEdgeStyle;rounded=0;orthogonalLoop=1;jettySize=auto;html=1;" edge="1" parent="1" source="vK1v-gUqV4TVuX3k9fDQ-7" target="vK1v-gUqV4TVuX3k9fDQ-12">
          <mxGeometry relative="1" as="geometry" />
        </mxCell>
        <mxCell id="vK1v-gUqV4TVuX3k9fDQ-7" value="&lt;font style=&quot;font-size: 20px;&quot;&gt;分数都存在&lt;/font&gt;" style="rhombus;whiteSpace=wrap;html=1;rounded=0;" vertex="1" parent="1">
          <mxGeometry x="576" y="347.5" width="135" height="135" as="geometry" />
        </mxCell>
        <mxCell id="vK1v-gUqV4TVuX3k9fDQ-9" value="&lt;font style=&quot;font-size: 20px;&quot;&gt;提示成绩不存在的所有学生信息&lt;/font&gt;" style="whiteSpace=wrap;html=1;rounded=0;" vertex="1" parent="1">
          <mxGeometry x="579.13" y="560" width="128.75" height="90" as="geometry" />
        </mxCell>
        <mxCell id="vK1v-gUqV4TVuX3k9fDQ-11" value="no" style="text;html=1;align=center;verticalAlign=middle;resizable=0;points=[];autosize=1;strokeColor=none;fillColor=none;" vertex="1" parent="1">
          <mxGeometry x="586" y="498" width="40" height="30" as="geometry" />
        </mxCell>
        <mxCell id="vK1v-gUqV4TVuX3k9fDQ-12" value="&lt;font style=&quot;font-size: 20px;&quot;&gt;返回平均分&lt;/font&gt;" style="whiteSpace=wrap;html=1;rounded=0;" vertex="1" parent="1">
          <mxGeometry x="798.5" y="385" width="120" height="60" as="geometry" />
        </mxCell>
        <mxCell id="vK1v-gUqV4TVuX3k9fDQ-14" value="yes" style="text;html=1;align=center;verticalAlign=middle;whiteSpace=wrap;rounded=0;" vertex="1" parent="1">
          <mxGeometry x="716" y="385" width="60" height="30" as="geometry" />
        </mxCell>
      </root>
    </mxGraphModel>
  </diagram>
</mxfile>
